<svg width="100" height="100" viewBox="0 0 100 100" fill="none" xmlns="http://www.w3.org/2000/svg">
<path d="M50 93.75C25.8375 93.75 6.25 74.1625 6.25 50C6.25 25.8375 25.8375 6.25 50 6.25C74.1625 6.25 93.75 25.8375 93.75 50C93.75 74.1625 74.1625 93.75 50 93.75ZM50 100C77.6142 100 100 77.6142 100 50C100 22.3858 77.6142 0 50 0C22.3858 0 0 22.3858 0 50C0 77.6142 22.3858 100 50 100Z" fill="white"/>
<path d="M31.25 39.0625C31.25 34.7478 34.7478 31.25 39.0625 31.25C43.3772 31.25 46.875 34.7478 46.875 39.0625V60.9375C46.875 65.2522 43.3772 68.75 39.0625 68.75C34.7478 68.75 31.25 65.2522 31.25 60.9375V39.0625ZM53.125 39.0625C53.125 34.7478 56.6228 31.25 60.9375 31.25C65.2522 31.25 68.75 34.7478 68.75 39.0625V60.9375C68.75 65.2522 65.2522 68.75 60.9375 68.75C56.6228 68.75 53.125 65.2522 53.125 60.9375V39.0625Z" fill="white"/>
</svg>
