<svg xmlns="http://www.w3.org/2000/svg" xmlns:xlink="http://www.w3.org/1999/xlink" width="500" zoomAndPan="magnify" viewBox="0 0 375 374.999991" height="500" preserveAspectRatio="xMidYMid meet" version="1.0"><defs><g/><clipPath id="733190a89f"><path d="M 122.679688 132 L 165 132 L 165 227 L 122.679688 227 Z M 122.679688 132 " clip-rule="nonzero"/></clipPath><clipPath id="0706b86a56"><path d="M 122.679688 224 L 149 224 L 149 237 L 122.679688 237 Z M 122.679688 224 " clip-rule="nonzero"/></clipPath><clipPath id="11e63122e1"><path d="M 177 98.632812 L 197 98.632812 L 197 119 L 177 119 Z M 177 98.632812 " clip-rule="nonzero"/></clipPath><clipPath id="fff81f9f84"><path d="M 210 132 L 252.429688 132 L 252.429688 227 L 210 227 Z M 210 132 " clip-rule="nonzero"/></clipPath><clipPath id="c4e9cf63e6"><path d="M 151 231 L 223 231 L 223 248.632812 L 151 248.632812 Z M 151 231 " clip-rule="nonzero"/></clipPath><clipPath id="a9df1a2e04"><path d="M 225 224 L 252.429688 224 L 252.429688 237 L 225 237 Z M 225 224 " clip-rule="nonzero"/></clipPath><clipPath id="dfc55d11e0"><path d="M 122.679688 132 L 165 132 L 165 227 L 122.679688 227 Z M 122.679688 132 " clip-rule="nonzero"/></clipPath><clipPath id="69cdf4d58f"><path d="M 151 231 L 188 231 L 188 248.632812 L 151 248.632812 Z M 151 231 " clip-rule="nonzero"/></clipPath><clipPath id="865508ed88"><path d="M 122.679688 224 L 149 224 L 149 237 L 122.679688 237 Z M 122.679688 224 " clip-rule="nonzero"/></clipPath><clipPath id="13626fcdf0"><path d="M 177 98.632812 L 188 98.632812 L 188 119 L 177 119 Z M 177 98.632812 " clip-rule="nonzero"/></clipPath><clipPath id="984b53372a"><path d="M 210 132 L 252.429688 132 L 252.429688 227 L 210 227 Z M 210 132 " clip-rule="nonzero"/></clipPath><clipPath id="7444d8b966"><path d="M 187 231 L 223 231 L 223 248.632812 L 187 248.632812 Z M 187 231 " clip-rule="nonzero"/></clipPath><clipPath id="ab70566d63"><path d="M 225 224 L 252.429688 224 L 252.429688 237 L 225 237 Z M 225 224 " clip-rule="nonzero"/></clipPath><clipPath id="55507e36d2"><path d="M 187 98.632812 L 197 98.632812 L 197 118 L 187 118 Z M 187 98.632812 " clip-rule="nonzero"/></clipPath></defs><g clip-path="url(#733190a89f)"><path fill="#1b75bb" d="M 152.949219 220.054688 C 155.007812 218.347656 157.503906 217.390625 159.835938 216.144531 C 161.59375 215.117188 163.292969 213.242188 163.066406 211.074219 C 162.828125 209.695312 163.050781 208.386719 163.632812 207.125 C 163.957031 206.433594 163.960938 206.425781 163.257812 206.148438 C 159.136719 204.597656 157.242188 194.464844 156.378906 190.410156 C 155.605469 186.210938 155.226562 181.953125 154.957031 177.699219 C 154.9375 177.449219 155.007812 177.367188 155.265625 177.339844 C 158.199219 176.945312 161.363281 176.914062 163.996094 175.414062 C 165.695312 174.226562 164.210938 172.789062 162.773438 172.335938 C 161.292969 171.730469 159.789062 171.199219 158.273438 170.679688 C 157.941406 170.566406 157.5 170.585938 157.3125 170.292969 C 157.117188 169.988281 157.25 169.566406 157.25 169.195312 C 157.25 168.796875 157.257812 168.785156 157.652344 168.75 C 158.042969 168.710938 158.4375 168.699219 158.8125 168.582031 C 159.621094 168.355469 159.855469 167.199219 159.183594 166.695312 C 158.511719 166.214844 157.59375 166.324219 156.808594 166.265625 C 156.695312 166.265625 156.550781 166.328125 156.460938 166.128906 C 164.726562 158.46875 159.191406 148.414062 152.855469 141.617188 C 152.535156 141.257812 152.613281 141.289062 152.851562 141.011719 C 154.941406 138.847656 154.757812 135.109375 152.042969 133.554688 C 146.261719 130.433594 141.261719 137.933594 146.953125 141.785156 C 145.527344 143.386719 143.957031 144.867188 142.570312 146.519531 C 141.429688 147.582031 140.617188 148.898438 139.75 150.183594 C 136.261719 155.367188 136.925781 162.113281 141.851562 166.136719 C 140.894531 166.355469 139.183594 166.125 138.816406 167.167969 C 138.671875 167.660156 138.929688 168.113281 139.269531 168.484375 C 139.671875 168.875 140.335938 168.617188 140.863281 168.691406 C 140.957031 169.136719 140.914062 169.582031 140.933594 170.019531 C 140.949219 170.433594 140.925781 170.453125 140.539062 170.59375 C 138.726562 171.265625 136.917969 171.949219 135.125 172.675781 C 133.152344 173.503906 133.4375 175.148438 135.285156 175.882812 C 137.613281 176.855469 140.152344 177.023438 142.628906 177.34375 C 142.917969 177.375 142.980469 177.484375 142.953125 177.75 C 142.460938 185.210938 141.675781 192.753906 139.203125 199.851562 C 138.230469 202.09375 137.546875 205.140625 135.011719 206.074219 C 134.703125 206.175781 134.402344 206.339844 134.144531 206.566406 C 132.214844 208.28125 133.507812 209.398438 132.964844 211.25 C 132.175781 213.417969 130.214844 214.710938 128.210938 215.640625 C 126.136719 216.683594 123.859375 217.953125 122.96875 220.226562 C 119.957031 227.625 144.191406 226.957031 148.445312 226.964844 C 148.722656 226.957031 148.894531 226.957031 148.980469 226.59375 C 149.472656 223.945312 150.835938 221.710938 152.949219 220.054688 Z M 155.996094 204.847656 C 156.398438 205.46875 156.871094 206.050781 157.347656 206.703125 C 153.925781 207.300781 150.527344 207.101562 147.078125 207.097656 C 147.949219 204.625 148.28125 202.183594 148.457031 199.617188 C 148.804688 193.46875 149.058594 187.328125 149.199219 181.167969 C 151.925781 188.8125 151.375 197.792969 155.996094 204.847656 Z M 161.019531 173.703125 C 161.144531 173.746094 161.269531 173.804688 161.398438 173.855469 C 157.875 173.902344 154.390625 173.867188 150.875 173.847656 C 150.597656 173.847656 150.382812 173.789062 150.167969 173.574219 C 149.027344 172.308594 147.34375 172.5 145.910156 171.933594 C 148.988281 171.777344 152.164062 171.441406 155.222656 171.730469 C 157.140625 172.433594 159.070312 173.085938 161.019531 173.703125 Z M 147.902344 135.292969 C 149.242188 134.1875 151.550781 134.992188 151.710938 136.773438 C 151.890625 138.007812 150.949219 139.046875 149.417969 139.050781 C 147.660156 139.042969 146.210938 136.585938 147.902344 135.292969 Z M 149.652344 141.175781 C 149.617188 141.207031 149.574219 141.132812 149.632812 141.136719 C 149.703125 141.136719 149.613281 141.128906 149.652344 141.175781 Z M 142.773438 158.355469 C 142.785156 158.347656 142.796875 158.34375 142.804688 158.34375 C 142.804688 158.34375 142.804688 158.34375 142.804688 158.339844 C 142.808594 158.351562 142.820312 158.363281 142.832031 158.375 C 142.832031 158.375 142.835938 158.371094 142.835938 158.371094 C 142.832031 158.351562 142.820312 158.339844 142.804688 158.339844 C 146.746094 150.902344 152.746094 151.636719 149.660156 141.179688 C 153.585938 144.429688 156.503906 150.585938 155.398438 155.742188 C 154.539062 159.578125 149.300781 158.539062 150.332031 154.566406 C 147.652344 155.324219 145.210938 156.910156 142.835938 158.371094 C 142.839844 158.375 142.839844 158.382812 142.84375 158.386719 C 142.835938 158.382812 142.835938 158.378906 142.832031 158.375 C 142.808594 158.382812 142.78125 158.386719 142.757812 158.394531 C 142.761719 158.382812 142.761719 158.363281 142.773438 158.355469 Z M 142.164062 167.171875 C 144.394531 166.777344 155.972656 166.808594 157.039062 167.21875 C 152.03125 167.722656 147.101562 167.789062 142.164062 167.171875 Z M 144.429688 209.566406 C 142.0625 209.164062 139.714844 208.828125 137.425781 208.09375 C 142.277344 208.335938 147.078125 208.929688 151.945312 208.625 C 154.84375 208.53125 157.554688 208.0625 160.492188 208.109375 C 160.28125 208.429688 160.019531 208.449219 159.796875 208.523438 C 154.839844 210.003906 149.542969 210.246094 144.429688 209.566406 Z M 144.429688 209.566406 " fill-opacity="1" fill-rule="nonzero"/></g><g clip-path="url(#0706b86a56)"><path fill="#1b75bb" d="M 148.398438 229.046875 C 140.382812 228.863281 131.816406 228.832031 124.515625 225.144531 C 124.082031 224.921875 123.378906 224.503906 123.035156 225.042969 C 122.925781 225.214844 122.910156 225.417969 122.921875 225.609375 C 122.976562 226.570312 122.890625 227.527344 122.890625 228.488281 C 122.890625 229.3125 123.136719 230.058594 123.640625 230.722656 C 127.152344 234.484375 133.527344 235.136719 138.378906 235.953125 C 141.707031 236.425781 145.070312 236.585938 148.425781 236.703125 C 148.84375 236.71875 148.84375 236.707031 148.84375 236.320312 C 148.84375 235.183594 148.84375 234.046875 148.84375 232.90625 C 148.851562 232.90625 148.863281 232.90625 148.871094 232.90625 C 148.871094 231.765625 148.867188 230.628906 148.871094 229.488281 C 148.875 229.042969 148.878906 229.042969 148.398438 229.046875 Z M 148.398438 229.046875 " fill-opacity="1" fill-rule="nonzero"/></g><g clip-path="url(#11e63122e1)"><path fill="#1b75bb" d="M 178.722656 113.269531 C 179.382812 113.058594 180.039062 112.839844 180.699219 112.632812 C 181.976562 112.261719 183.324219 111.742188 184.5625 111.449219 C 184.570312 111.460938 184.523438 111.519531 184.503906 111.558594 C 183.234375 113.390625 181.945312 115.21875 180.734375 117.089844 C 180.410156 117.597656 180.605469 117.949219 181.203125 117.992188 C 183.292969 118.027344 185.386719 117.988281 187.476562 118 C 187.480469 117.847656 187.480469 117.847656 187.476562 117.996094 C 189.585938 117.917969 191.71875 118.027344 193.8125 117.847656 C 194.34375 117.679688 193.90625 117.132812 193.722656 116.839844 C 192.503906 115.15625 191.402344 113.390625 190.140625 111.738281 C 190.082031 111.664062 189.972656 111.59375 190.046875 111.453125 C 192.117188 112.117188 194.1875 112.789062 196.28125 113.382812 C 196.789062 113.523438 196.914062 113.402344 196.953125 112.878906 C 196.941406 109.71875 196.96875 106.550781 196.898438 103.390625 C 196.832031 102.824219 196.191406 103.128906 195.835938 103.210938 C 193.855469 103.828125 191.957031 104.457031 190.011719 105.199219 C 191.253906 103.308594 192.542969 101.613281 193.675781 99.683594 C 193.875 99.359375 194.203125 98.761719 193.621094 98.648438 C 191.582031 98.601562 189.535156 98.699219 187.492188 98.703125 C 187.488281 98.847656 187.488281 98.847656 187.492188 98.703125 C 185.359375 98.695312 183.222656 98.628906 181.09375 98.652344 C 180.195312 98.824219 180.851562 99.726562 181.148438 100.171875 C 182.195312 101.835938 183.519531 103.417969 184.429688 105.121094 C 182.304688 104.484375 180.230469 103.632812 178.078125 103.085938 C 177.738281 103.035156 177.578125 103.164062 177.523438 103.5 C 177.496094 106.429688 177.53125 109.367188 177.523438 112.300781 C 177.453125 113.265625 177.773438 113.632812 178.722656 113.269531 Z M 178.722656 113.269531 " fill-opacity="1" fill-rule="nonzero"/></g><g clip-path="url(#fff81f9f84)"><path fill="#1b75bb" d="M 226.128906 226.988281 C 230.390625 227.007812 252.882812 227.359375 252.265625 221.386719 C 251.789062 217.515625 247.617188 216.160156 244.695312 214.460938 C 243.054688 213.417969 241.351562 211.625 241.835938 209.503906 C 242.296875 207.910156 241.101562 206.386719 239.617188 205.851562 C 239.050781 205.578125 238.546875 205.238281 238.179688 204.707031 C 233.316406 196.6875 232.613281 186.894531 231.746094 177.757812 C 231.714844 177.386719 231.722656 177.375 232.09375 177.328125 C 234.609375 177.019531 237.164062 176.773438 239.558594 175.898438 C 241.34375 175.339844 242.023438 173.632812 240.089844 172.675781 C 238.394531 171.851562 236.601562 171.265625 234.835938 170.625 C 234.476562 170.496094 234.011719 170.445312 233.800781 170.148438 C 233.613281 169.886719 233.796875 169.457031 233.773438 169.105469 C 233.753906 168.800781 233.890625 168.710938 234.179688 168.699219 C 234.550781 168.683594 234.921875 168.617188 235.277344 168.496094 C 236.179688 168.210938 236.246094 166.871094 235.292969 166.578125 C 234.519531 166.296875 233.667969 166.289062 232.851562 166.261719 C 241.03125 157.886719 235.4375 148.835938 228.953125 141.542969 C 228.640625 141.164062 228.644531 141.15625 228.960938 140.804688 C 231.773438 137.921875 229.648438 132.761719 225.605469 132.734375 C 220.152344 132.347656 218.121094 139.011719 222.925781 141.683594 C 220.289062 144.625 217.304688 147.238281 215.425781 150.746094 C 212.328125 155.804688 213.628906 162.230469 217.972656 166.125 C 217.203125 166.351562 216.535156 166.203125 215.796875 166.488281 C 215.320312 166.648438 215.109375 166.910156 215.085938 167.402344 C 215.054688 168.023438 215.175781 168.214844 215.730469 168.46875 C 216.007812 168.597656 216.304688 168.652344 216.605469 168.6875 C 216.796875 168.710938 217.03125 168.605469 217.171875 168.730469 C 217.351562 168.914062 217.230469 169.253906 217.285156 169.5 C 217.34375 170.371094 217.34375 170.371094 216.519531 170.664062 C 214.527344 171.605469 212.160156 171.960938 210.449219 173.398438 C 210.058594 173.8125 210.023438 174.695312 210.445312 175.058594 C 212.734375 176.867188 216.195312 176.90625 218.992188 177.285156 C 219.679688 177.351562 219.574219 177.3125 219.558594 177.898438 C 219.476562 183.640625 217.359375 203.390625 212.042969 205.925781 C 211.75 206.046875 211.476562 206.210938 211.160156 206.289062 C 210.167969 206.464844 212.199219 208.324219 211.703125 210.933594 C 211.394531 218.453125 223.902344 216.210938 225.644531 226.589844 C 225.707031 226.972656 225.710938 226.984375 226.128906 226.988281 Z M 238.238281 215.78125 C 239.257812 215.316406 240.246094 214.820312 240.496094 213.5 C 241.777344 215.296875 243.234375 216.792969 245.359375 217.507812 C 246.566406 218 248.152344 218.535156 248.570312 219.910156 C 249.15625 222.890625 238.609375 223.566406 236.5 223.554688 C 234.507812 223.492188 232.371094 223.433594 230.585938 222.457031 C 228.375 221.175781 230.660156 218.925781 232.167969 218.226562 C 234.085938 217.167969 236.210938 216.597656 238.238281 215.78125 Z M 233.992188 206.367188 C 234.070312 206.5 234.164062 206.515625 234.148438 206.707031 C 230.800781 207.257812 227.449219 207.175781 224.058594 207.035156 C 226.386719 198.648438 225.332031 189.785156 226.105469 181.199219 C 228.796875 189.539062 228.410156 199.160156 233.992188 206.367188 Z M 238.511719 173.132812 C 238.433594 173.351562 238.242188 173.347656 238.09375 173.386719 C 234.542969 173.894531 230.925781 173.734375 227.347656 173.835938 C 227.164062 173.839844 227 173.8125 226.859375 173.675781 C 225.789062 172.632812 224.441406 172.238281 223.011719 172.027344 C 222.824219 172 222.628906 172.003906 222.398438 171.84375 C 224.625 171.671875 226.789062 171.578125 228.949219 171.433594 C 232.285156 171.175781 235.226562 172.8125 238.511719 173.132812 Z M 222.4375 137.058594 C 222.230469 133.96875 227.484375 133.445312 227.941406 136.875 C 228.175781 140.386719 222.367188 140.625 222.4375 137.058594 Z M 219.8125 156.683594 C 221.378906 154.023438 224.164062 152.425781 225.757812 149.808594 C 227.148438 147.285156 226.671875 144.347656 225.796875 141.742188 C 225.734375 141.527344 225.636719 141.316406 225.699219 141.050781 C 229.703125 144.726562 232.914062 150.46875 231.5 156.011719 C 230.863281 158.769531 226.585938 158.84375 226.390625 155.824219 C 226.367188 155.347656 226.386719 154.867188 226.386719 154.359375 C 223.699219 155.339844 221.210938 156.648438 218.820312 158.203125 C 219.152344 157.695312 219.484375 157.191406 219.8125 156.683594 Z M 219.363281 167.320312 C 219.101562 167.304688 218.84375 167.285156 218.484375 167.183594 C 221.792969 166.898438 232.113281 166.648438 234.132812 167.386719 C 229.195312 167.386719 224.292969 167.835938 219.363281 167.320312 Z M 225.375 209.882812 C 221.621094 209.695312 217.933594 209 214.304688 208.015625 C 219.460938 208.378906 224.453125 208.910156 229.589844 208.5625 C 232.242188 208.417969 234.882812 208.050781 237.546875 208.085938 C 237.550781 208.136719 237.554688 208.183594 237.5625 208.234375 C 233.664062 209.570312 229.480469 209.957031 225.375 209.882812 Z M 225.375 209.882812 " fill-opacity="1" fill-rule="nonzero"/></g><path fill="#1b75bb" d="M 220.929688 222.949219 C 219.042969 220.953125 216.410156 220.023438 214.046875 218.746094 C 211.070312 217.183594 208.339844 214.136719 208.957031 210.523438 C 209.484375 206.1875 206.085938 206.933594 204.496094 204.316406 C 197.761719 191.695312 196.710938 176.921875 196.214844 162.871094 C 196.136719 162.851562 196.058594 162.84375 195.980469 162.84375 C 196.058594 162.84375 196.140625 162.851562 196.21875 162.871094 C 196.449219 162.617188 196.773438 162.671875 197.0625 162.636719 C 198.839844 162.40625 200.628906 162.242188 202.390625 161.882812 C 204.949219 161.40625 211.804688 160.089844 208.867188 156.320312 C 208.496094 155.960938 208.085938 155.65625 207.617188 155.421875 C 205.070312 154.230469 202.371094 153.363281 199.667969 152.609375 C 199.179688 152.519531 199.441406 151.664062 199.402344 151.28125 C 199.28125 150.203125 199.410156 150.175781 200.46875 150.15625 C 200.894531 150.117188 201.320312 150.078125 201.722656 149.925781 C 203.332031 149.285156 202.785156 147.066406 201.113281 146.824219 C 200.539062 146.699219 199.953125 146.660156 199.367188 146.625 C 199.175781 146.613281 199.070312 146.570312 199.113281 146.339844 C 199.953125 140.769531 202.136719 135.488281 204.320312 130.332031 C 205.054688 128.675781 205.867188 127.054688 206.640625 125.414062 C 207.480469 123.996094 207.324219 122.4375 205.429688 122.058594 C 195.761719 120.46875 185.867188 120.628906 176.113281 121.203125 C 173.964844 121.359375 171.832031 121.617188 169.707031 121.964844 C 167.828125 122.226562 166.917969 123.464844 167.949219 125.210938 C 170.640625 130.648438 172.933594 136.285156 174.621094 142.117188 C 175.007812 143.445312 175.351562 144.789062 175.5 146.171875 C 175.546875 146.589844 175.539062 146.589844 175.105469 146.632812 C 173.988281 146.738281 172.394531 146.859375 172.167969 148.222656 C 171.929688 149.851562 173.714844 150.246094 175.003906 150.15625 C 175.230469 150.15625 175.316406 150.234375 175.308594 150.46875 C 175.292969 151.054688 175.296875 151.640625 175.292969 152.230469 C 175.292969 152.390625 175.304688 152.570312 175.09375 152.605469 C 174.40625 152.886719 173.664062 153.023438 172.960938 153.289062 C 172.1875 153.679688 171.308594 153.742188 170.527344 154.109375 C 168.816406 154.832031 166.761719 155.230469 165.527344 156.710938 C 163.121094 160.910156 172.757812 161.914062 175.304688 162.316406 C 176.242188 162.4375 177.175781 162.539062 178.113281 162.664062 C 178.511719 162.71875 178.515625 162.734375 178.511719 163.132812 C 178.464844 168.433594 178.136719 173.726562 177.523438 178.992188 C 176.441406 187.613281 174.679688 196.371094 170.550781 204.09375 C 169.472656 206.453125 167.285156 205.949219 166.238281 208.027344 C 164.804688 211.132812 167.535156 211.886719 163.9375 216.3125 C 160.386719 220.367188 152.863281 220.660156 151.832031 226.816406 C 149.714844 235.429688 181.84375 235.460938 187.527344 235.4375 C 187.527344 235.4375 187.527344 235.433594 187.527344 235.433594 C 197.226562 235.488281 207.105469 235.132812 216.503906 232.546875 C 219.136719 231.652344 223.230469 230.628906 222.886719 227.105469 C 222.753906 225.476562 222.039062 224.121094 220.929688 222.949219 Z M 198.988281 206.785156 C 195.230469 207.699219 191.320312 207.542969 187.480469 207.582031 C 187.480469 207.582031 187.480469 207.582031 187.480469 207.585938 C 186.554688 207.511719 185.582031 207.664062 184.683594 207.441406 C 188.199219 195.160156 186.652344 182.023438 187.554688 169.433594 C 191.753906 181.617188 190.394531 196.304688 198.988281 206.785156 Z M 194.757812 160.304688 C 194.085938 160.53125 191.585938 161.496094 192.792969 162.359375 C 193.269531 162.730469 193.816406 162.925781 194.417969 162.949219 C 194.75 162.957031 195.082031 162.976562 195.414062 162.9375 C 195.082031 162.980469 194.75 162.960938 194.417969 162.949219 C 193.816406 162.929688 193.269531 162.730469 192.789062 162.359375 C 191.578125 161.5 194.097656 160.523438 194.757812 160.304688 C 195.488281 160.007812 196.570312 159.792969 197.789062 159.597656 C 196.765625 159.78125 195.753906 160.003906 194.757812 160.304688 Z M 206.128906 157.582031 C 205.789062 158.15625 204.191406 158.546875 203.308594 158.722656 C 204.613281 158.441406 205.667969 158.089844 206.128906 157.582031 C 206.132812 157.507812 206.113281 157.453125 206.078125 157.40625 C 206.113281 157.453125 206.132812 157.511719 206.128906 157.582031 Z M 205.5625 157.082031 C 204.65625 156.675781 203.71875 156.335938 202.769531 156.035156 C 203.71875 156.332031 204.65625 156.667969 205.5625 157.082031 Z M 204.785156 156.898438 C 204.683594 157.023438 204.578125 157.058594 204.464844 157.078125 C 202.054688 157.511719 199.578125 157.285156 197.136719 157.449219 C 194.816406 157.535156 192.488281 157.597656 190.164062 157.589844 C 189.117188 157.667969 188.558594 156.652344 187.632812 156.367188 C 187.632812 156.367188 187.632812 156.371094 187.632812 156.375 C 186.261719 155.597656 184.785156 155.164062 183.234375 154.929688 C 182.863281 154.875 182.464844 154.910156 182.019531 154.667969 C 183.914062 154.289062 185.660156 154.464844 187.535156 154.289062 C 187.535156 154.289062 187.535156 154.289062 187.535156 154.285156 C 190.714844 154.332031 193.921875 153.757812 197.039062 154.527344 C 197.097656 154.640625 197.203125 154.632812 197.308594 154.625 C 197.273438 154.582031 197.234375 154.550781 197.191406 154.53125 C 197.238281 154.550781 197.273438 154.582031 197.3125 154.625 C 197.789062 154.746094 198.269531 154.863281 198.753906 154.980469 C 198.375 154.894531 198 154.8125 197.625 154.730469 C 199.964844 155.621094 202.417969 156.074219 204.785156 156.898438 Z M 196.203125 153.957031 C 196.378906 154.09375 196.5625 154.214844 196.757812 154.308594 C 196.863281 154.367188 196.996094 154.386719 197.042969 154.523438 C 197.042969 154.523438 197.042969 154.523438 197.042969 154.519531 L 197.039062 154.519531 C 196.996094 154.386719 196.859375 154.367188 196.757812 154.308594 C 196.558594 154.214844 196.375 154.09375 196.203125 153.957031 Z M 176.558594 147.53125 C 176.6875 147.371094 176.789062 147.386719 176.878906 147.375 C 180.402344 146.910156 191.625 147.023438 193.675781 146.996094 C 194.207031 146.988281 194.675781 146.742188 195.035156 146.328125 C 195.035156 146.328125 195.035156 146.328125 195.039062 146.332031 C 195.3125 146.351562 198.808594 147.605469 197.730469 147.910156 C 197.167969 148.464844 197.164062 148.460938 197.726562 147.90625 C 194.304688 147.839844 190.890625 148.328125 187.464844 148.25 C 187.464844 148.253906 187.464844 148.253906 187.464844 148.257812 C 183.796875 148.222656 180.21875 147.800781 176.558594 147.53125 Z M 187.515625 211.710938 C 187.515625 211.710938 187.515625 211.710938 187.515625 211.714844 C 181.785156 211.347656 175.996094 210.742188 170.664062 208.457031 C 176.269531 208.816406 181.816406 209.628906 187.453125 209.476562 C 187.453125 209.476562 187.453125 209.476562 187.453125 209.472656 C 191.113281 209.570312 194.765625 209.199219 198.40625 208.886719 C 200.050781 208.726562 201.703125 208.679688 203.355469 208.601562 C 203.539062 208.59375 203.738281 208.578125 203.945312 208.6875 C 199.941406 211.292969 192.304688 211.476562 187.515625 211.710938 Z M 218.457031 226.972656 C 214.921875 230.625 198.296875 232.007812 194.066406 229.023438 C 190.40625 226.242188 195.804688 223.046875 198.324219 222.078125 C 200.9375 220.941406 203.808594 220.363281 206.253906 218.859375 C 206.6875 218.582031 206.976562 218.230469 206.945312 217.683594 C 206.941406 217.621094 206.980469 217.550781 207.03125 217.363281 C 209.246094 218.921875 210.984375 220.992188 213.546875 221.964844 C 215.441406 222.851562 218.089844 223.476562 218.753906 225.730469 C 218.859375 226.203125 218.757812 226.609375 218.457031 226.972656 Z M 218.457031 226.972656 " fill-opacity="1" fill-rule="nonzero"/><g clip-path="url(#c4e9cf63e6)"><path fill="#1b75bb" d="M 222.640625 232.347656 C 222.621094 232.101562 222.699219 231.472656 222.285156 231.699219 C 220.734375 232.453125 219.148438 233.125 217.53125 233.722656 C 207.9375 237.226562 197.605469 238.003906 187.46875 238.3125 C 175.835938 237.910156 163.445312 237.660156 153.007812 231.949219 C 152.457031 231.738281 152.015625 232.011719 151.921875 232.597656 C 151.933594 235.484375 151.386719 238.785156 153.746094 240.949219 C 161.027344 247.472656 177.917969 248.390625 187.519531 248.632812 C 187.488281 246.929688 187.492188 246.929688 187.519531 248.632812 C 198.417969 248.421875 210.289062 247.878906 219.769531 241.953125 C 223.273438 239.707031 222.710938 235.980469 222.640625 232.347656 Z M 222.640625 232.347656 " fill-opacity="1" fill-rule="nonzero"/></g><g clip-path="url(#a9df1a2e04)"><path fill="#1b75bb" d="M 251.867188 224.445312 C 243.90625 228.25 234.859375 228.957031 226.152344 229.199219 C 225.746094 229.21875 225.746094 229.210938 225.730469 229.601562 C 225.726562 231.878906 225.75 234.15625 225.753906 236.433594 C 225.75 236.617188 225.84375 236.6875 226.019531 236.679688 C 228.21875 236.566406 230.421875 236.480469 232.621094 236.296875 C 238.65625 235.625 245.183594 235.0625 250.363281 231.613281 C 251.441406 230.785156 252.058594 229.703125 252.054688 228.324219 C 252.046875 227.238281 252.007812 226.15625 251.980469 225.070312 C 251.980469 224.878906 252 224.679688 251.867188 224.445312 Z M 251.867188 224.445312 " fill-opacity="1" fill-rule="nonzero"/></g><path fill="#58595b" d="M 197.042969 154.523438 C 197.042969 154.523438 197.039062 154.523438 197.039062 154.519531 Z M 197.042969 154.523438 " fill-opacity="1" fill-rule="nonzero"/><path fill="#58595b" d="M 208.867188 156.320312 C 208.496094 155.960938 208.085938 155.65625 207.617188 155.421875 C 205.070312 154.230469 202.371094 153.363281 199.667969 152.609375 C 199.179688 152.519531 199.441406 151.664062 199.402344 151.28125 C 199.28125 150.203125 199.410156 150.175781 200.46875 150.15625 C 200.894531 150.117188 201.320312 150.078125 201.722656 149.925781 C 203.332031 149.285156 202.785156 147.066406 201.113281 146.824219 C 200.539062 146.699219 199.953125 146.660156 199.367188 146.625 C 199.175781 146.613281 199.070312 146.570312 199.113281 146.339844 C 199.953125 140.769531 202.136719 135.488281 204.320312 130.332031 C 205.054688 128.675781 205.867188 127.054688 206.640625 125.414062 C 207.480469 123.996094 207.324219 122.4375 205.429688 122.058594 C 195.761719 120.46875 185.867188 120.628906 176.113281 121.203125 C 173.964844 121.359375 171.832031 121.617188 169.707031 121.964844 C 167.828125 122.226562 166.917969 123.464844 167.949219 125.210938 C 170.640625 130.648438 172.933594 136.285156 174.621094 142.117188 C 175.007812 143.445312 175.351562 144.789062 175.5 146.171875 C 175.546875 146.589844 175.539062 146.589844 175.105469 146.632812 C 173.988281 146.738281 172.394531 146.859375 172.167969 148.222656 C 171.929688 149.851562 173.714844 150.246094 175.003906 150.15625 C 175.230469 150.15625 175.316406 150.234375 175.308594 150.46875 C 175.292969 151.054688 175.296875 151.640625 175.292969 152.230469 C 175.292969 152.390625 175.304688 152.570312 175.09375 152.605469 C 174.40625 152.886719 173.664062 153.023438 172.960938 153.289062 C 172.1875 153.679688 171.308594 153.742188 170.527344 154.109375 C 168.816406 154.832031 166.761719 155.230469 165.527344 156.710938 C 163.121094 160.910156 172.757812 161.914062 175.304688 162.316406 C 176.242188 162.4375 177.175781 162.539062 178.113281 162.664062 C 178.511719 162.71875 178.515625 162.734375 178.511719 163.132812 C 178.464844 168.433594 178.136719 173.726562 177.523438 178.992188 C 176.441406 187.613281 174.679688 196.371094 170.550781 204.09375 C 169.472656 206.453125 167.285156 205.949219 166.238281 208.027344 C 164.804688 211.132812 167.535156 211.886719 163.9375 216.3125 C 160.386719 220.367188 152.863281 220.660156 151.832031 226.816406 C 149.714844 235.429688 181.84375 235.460938 187.527344 235.4375 C 187.480469 227.53125 187.515625 219.625 187.519531 211.714844 C 181.785156 211.347656 175.996094 210.742188 170.664062 208.457031 C 176.269531 208.816406 181.816406 209.628906 187.453125 209.476562 C 187.449219 208.847656 187.417969 208.214844 187.480469 207.585938 C 186.554688 207.511719 185.582031 207.664062 184.683594 207.441406 C 188.199219 195.160156 186.652344 182.023438 187.554688 169.433594 C 187.601562 165.097656 187.332031 160.660156 187.632812 156.375 C 186.261719 155.597656 184.785156 155.164062 183.234375 154.929688 C 182.863281 154.875 182.464844 154.910156 182.019531 154.667969 C 183.914062 154.289062 185.660156 154.464844 187.535156 154.289062 C 187.480469 152.28125 187.566406 150.269531 187.46875 148.257812 C 183.800781 148.222656 180.21875 147.800781 176.558594 147.53125 C 176.6875 147.371094 176.789062 147.386719 176.878906 147.375 C 180.402344 146.910156 183.992188 147.1875 187.519531 146.992188 C 187.519531 139.21875 187.515625 131.449219 187.515625 123.675781 C 187.515625 122.976562 187.460938 122.992188 188.179688 123.027344 C 193.074219 123.269531 197.957031 123.710938 202.835938 124.132812 C 200.648438 129.832031 198.65625 135.71875 197.113281 141.683594 C 196.703125 143.089844 196.136719 144.429688 195.269531 145.625 C 195.128906 145.824219 194.867188 146.015625 195.039062 146.332031 C 195.3125 146.351562 198.808594 147.605469 197.730469 147.910156 C 197.167969 148.464844 196.375 148.746094 195.792969 149.296875 C 194.070312 150.699219 194.96875 153.4375 196.757812 154.308594 C 196.863281 154.367188 196.996094 154.386719 197.042969 154.523438 C 197.15625 154.496094 197.242188 154.542969 197.3125 154.625 C 200.089844 155.328125 202.980469 155.890625 205.613281 157.105469 C 205.796875 157.246094 206.140625 157.300781 206.128906 157.582031 C 205.746094 158.226562 203.773438 158.644531 203.015625 158.777344 C 200.261719 159.257812 197.445312 159.492188 194.757812 160.304688 C 194.085938 160.53125 191.585938 161.496094 192.792969 162.359375 C 193.269531 162.730469 193.816406 162.925781 194.417969 162.949219 C 194.859375 162.960938 195.304688 162.992188 195.742188 162.875 C 195.898438 162.832031 196.058594 162.832031 196.21875 162.871094 C 196.449219 162.617188 196.773438 162.671875 197.0625 162.636719 C 198.839844 162.40625 200.628906 162.242188 202.390625 161.882812 C 204.949219 161.40625 211.804688 160.089844 208.867188 156.320312 Z M 208.867188 156.320312 " fill-opacity="1" fill-rule="nonzero"/><path fill="#58595b" d="M 142.832031 158.375 C 142.832031 158.375 142.835938 158.371094 142.835938 158.371094 C 142.832031 158.351562 142.820312 158.339844 142.804688 158.339844 C 142.808594 158.351562 142.820312 158.363281 142.832031 158.375 Z M 142.832031 158.375 " fill-opacity="1" fill-rule="nonzero"/><g clip-path="url(#dfc55d11e0)"><path fill="#58595b" d="M 152.949219 220.054688 C 155.007812 218.347656 157.503906 217.390625 159.835938 216.144531 C 161.59375 215.117188 163.292969 213.242188 163.066406 211.074219 C 162.828125 209.695312 163.050781 208.386719 163.632812 207.125 C 163.957031 206.433594 163.960938 206.425781 163.257812 206.148438 C 159.136719 204.597656 157.242188 194.464844 156.378906 190.410156 C 155.605469 186.210938 155.226562 181.953125 154.957031 177.699219 C 154.9375 177.449219 155.007812 177.367188 155.265625 177.339844 C 158.199219 176.945312 161.363281 176.914062 163.996094 175.414062 C 165.695312 174.226562 164.210938 172.789062 162.773438 172.335938 C 161.292969 171.730469 159.789062 171.199219 158.273438 170.679688 C 157.941406 170.566406 157.5 170.585938 157.3125 170.292969 C 157.117188 169.988281 157.25 169.566406 157.25 169.195312 C 157.25 168.796875 157.257812 168.785156 157.652344 168.75 C 158.042969 168.710938 158.4375 168.699219 158.8125 168.582031 C 159.621094 168.355469 159.855469 167.199219 159.183594 166.695312 C 158.511719 166.214844 157.59375 166.324219 156.808594 166.265625 C 156.695312 166.265625 156.550781 166.328125 156.460938 166.128906 C 164.726562 158.46875 159.191406 148.414062 152.855469 141.617188 C 152.535156 141.257812 152.613281 141.289062 152.851562 141.011719 C 154.941406 138.847656 154.757812 135.109375 152.042969 133.554688 C 146.261719 130.433594 141.261719 137.933594 146.953125 141.785156 C 145.527344 143.386719 143.957031 144.867188 142.570312 146.519531 C 141.429688 147.582031 140.617188 148.898438 139.75 150.183594 C 136.261719 155.367188 136.925781 162.113281 141.851562 166.136719 C 140.894531 166.355469 139.183594 166.125 138.816406 167.167969 C 138.671875 167.660156 138.929688 168.113281 139.269531 168.484375 C 139.671875 168.875 140.335938 168.617188 140.863281 168.691406 C 140.957031 169.136719 140.914062 169.582031 140.933594 170.019531 C 140.949219 170.433594 140.925781 170.453125 140.539062 170.59375 C 138.726562 171.265625 136.917969 171.949219 135.125 172.675781 C 133.152344 173.503906 133.4375 175.148438 135.285156 175.882812 C 137.613281 176.855469 140.152344 177.023438 142.628906 177.34375 C 142.917969 177.375 142.980469 177.484375 142.953125 177.75 C 142.460938 185.210938 141.675781 192.753906 139.203125 199.851562 C 138.230469 202.09375 137.546875 205.140625 135.011719 206.074219 C 134.703125 206.175781 134.402344 206.339844 134.144531 206.566406 C 132.214844 208.28125 133.507812 209.398438 132.964844 211.25 C 132.175781 213.417969 130.214844 214.710938 128.210938 215.640625 C 126.136719 216.683594 123.859375 217.953125 122.96875 220.226562 C 119.957031 227.625 144.191406 226.957031 148.445312 226.964844 C 148.722656 226.957031 148.894531 226.957031 148.980469 226.59375 C 149.472656 223.945312 150.835938 221.710938 152.949219 220.054688 Z M 155.996094 204.847656 C 156.398438 205.46875 156.871094 206.050781 157.347656 206.703125 C 153.925781 207.300781 150.527344 207.101562 147.078125 207.097656 C 147.949219 204.625 148.28125 202.183594 148.457031 199.617188 C 148.804688 193.46875 149.058594 187.328125 149.199219 181.167969 C 151.925781 188.8125 151.375 197.792969 155.996094 204.847656 Z M 161.019531 173.703125 C 161.144531 173.746094 161.269531 173.804688 161.398438 173.855469 C 157.875 173.902344 154.390625 173.867188 150.875 173.847656 C 150.597656 173.847656 150.382812 173.789062 150.167969 173.574219 C 149.027344 172.308594 147.34375 172.5 145.910156 171.933594 C 148.988281 171.777344 152.164062 171.441406 155.222656 171.730469 C 157.140625 172.433594 159.070312 173.085938 161.019531 173.703125 Z M 147.902344 135.292969 C 149.242188 134.1875 151.550781 134.992188 151.710938 136.773438 C 151.890625 138.007812 150.949219 139.046875 149.417969 139.050781 C 147.660156 139.042969 146.210938 136.585938 147.902344 135.292969 Z M 149.652344 141.175781 C 149.617188 141.207031 149.574219 141.132812 149.632812 141.136719 C 149.703125 141.136719 149.613281 141.128906 149.652344 141.175781 Z M 142.773438 158.355469 C 142.785156 158.347656 142.796875 158.34375 142.804688 158.34375 C 146.746094 150.902344 152.75 151.636719 149.660156 141.179688 C 153.585938 144.429688 156.503906 150.585938 155.398438 155.742188 C 154.539062 159.578125 149.300781 158.539062 150.332031 154.566406 C 147.652344 155.324219 145.210938 156.910156 142.835938 158.371094 C 142.839844 158.375 142.839844 158.382812 142.84375 158.386719 C 142.835938 158.382812 142.835938 158.378906 142.832031 158.375 C 142.808594 158.382812 142.78125 158.386719 142.757812 158.394531 C 142.761719 158.382812 142.761719 158.363281 142.773438 158.355469 Z M 142.164062 167.171875 C 144.394531 166.777344 155.972656 166.808594 157.039062 167.21875 C 152.03125 167.722656 147.101562 167.789062 142.164062 167.171875 Z M 144.429688 209.566406 C 142.0625 209.164062 139.714844 208.828125 137.425781 208.09375 C 142.277344 208.335938 147.078125 208.929688 151.945312 208.625 C 154.84375 208.53125 157.554688 208.0625 160.492188 208.109375 C 160.28125 208.429688 160.019531 208.449219 159.796875 208.523438 C 154.839844 210.003906 149.542969 210.246094 144.429688 209.566406 Z M 144.429688 209.566406 " fill-opacity="1" fill-rule="nonzero"/></g><g clip-path="url(#69cdf4d58f)"><path fill="#58595b" d="M 187.449219 239.429688 C 187.449219 239.054688 187.460938 238.683594 187.46875 238.3125 C 175.835938 237.910156 163.445312 237.660156 153.007812 231.949219 C 152.457031 231.738281 152.015625 232.011719 151.921875 232.597656 C 151.933594 235.484375 151.386719 238.785156 153.746094 240.949219 C 161.027344 247.472656 177.914062 248.390625 187.519531 248.632812 C 187.457031 245.566406 187.429688 242.496094 187.449219 239.429688 Z M 187.449219 239.429688 " fill-opacity="1" fill-rule="nonzero"/></g><g clip-path="url(#865508ed88)"><path fill="#58595b" d="M 148.398438 229.046875 C 140.382812 228.863281 131.816406 228.832031 124.515625 225.144531 C 124.082031 224.921875 123.378906 224.503906 123.035156 225.042969 C 122.925781 225.214844 122.910156 225.417969 122.921875 225.609375 C 122.976562 226.570312 122.890625 227.527344 122.890625 228.488281 C 122.890625 229.3125 123.136719 230.058594 123.640625 230.722656 C 127.152344 234.484375 133.527344 235.136719 138.378906 235.953125 C 141.707031 236.425781 145.070312 236.585938 148.425781 236.703125 C 148.84375 236.71875 148.84375 236.707031 148.84375 236.320312 C 148.84375 235.183594 148.84375 234.046875 148.84375 232.90625 C 148.851562 232.90625 148.863281 232.90625 148.871094 232.90625 C 148.871094 231.765625 148.867188 230.628906 148.871094 229.488281 C 148.875 229.042969 148.878906 229.042969 148.398438 229.046875 Z M 148.398438 229.046875 " fill-opacity="1" fill-rule="nonzero"/></g><g clip-path="url(#13626fcdf0)"><path fill="#58595b" d="M 177.523438 112.300781 C 177.453125 113.265625 177.773438 113.632812 178.722656 113.269531 C 179.382812 113.058594 180.039062 112.839844 180.699219 112.632812 C 181.976562 112.261719 183.324219 111.742188 184.5625 111.449219 C 184.570312 111.460938 184.523438 111.519531 184.503906 111.558594 C 183.234375 113.390625 181.945312 115.21875 180.734375 117.089844 C 180.410156 117.597656 180.605469 117.949219 181.203125 117.992188 C 183.292969 118.027344 185.386719 117.988281 187.476562 118 C 187.628906 111.566406 187.339844 105.132812 187.492188 98.703125 C 185.359375 98.695312 183.222656 98.628906 181.09375 98.652344 C 180.195312 98.824219 180.851562 99.726562 181.148438 100.171875 C 182.195312 101.835938 183.519531 103.417969 184.429688 105.121094 C 182.304688 104.484375 180.230469 103.632812 178.078125 103.085938 C 177.738281 103.035156 177.578125 103.164062 177.523438 103.5 C 177.496094 106.429688 177.53125 109.367188 177.523438 112.300781 Z M 177.523438 112.300781 " fill-opacity="1" fill-rule="nonzero"/></g><g clip-path="url(#984b53372a)"><path fill="#1b75bb" d="M 226.128906 226.988281 C 230.390625 227.007812 252.882812 227.359375 252.265625 221.386719 C 251.789062 217.515625 247.617188 216.160156 244.695312 214.460938 C 243.054688 213.417969 241.351562 211.625 241.835938 209.503906 C 242.296875 207.910156 241.101562 206.386719 239.617188 205.851562 C 239.050781 205.578125 238.546875 205.238281 238.179688 204.707031 C 233.316406 196.6875 232.613281 186.894531 231.746094 177.757812 C 231.714844 177.386719 231.722656 177.375 232.09375 177.328125 C 234.609375 177.019531 237.164062 176.773438 239.558594 175.898438 C 241.34375 175.339844 242.023438 173.632812 240.089844 172.675781 C 238.394531 171.851562 236.601562 171.265625 234.835938 170.625 C 234.476562 170.496094 234.011719 170.445312 233.800781 170.148438 C 233.613281 169.886719 233.796875 169.457031 233.773438 169.105469 C 233.753906 168.800781 233.890625 168.710938 234.179688 168.699219 C 234.550781 168.683594 234.921875 168.617188 235.277344 168.496094 C 236.179688 168.210938 236.246094 166.871094 235.292969 166.578125 C 234.519531 166.296875 233.667969 166.289062 232.851562 166.261719 C 241.03125 157.886719 235.4375 148.835938 228.953125 141.542969 C 228.640625 141.164062 228.644531 141.15625 228.960938 140.804688 C 231.773438 137.921875 229.648438 132.761719 225.605469 132.734375 C 220.152344 132.347656 218.121094 139.011719 222.925781 141.683594 C 220.289062 144.625 217.304688 147.238281 215.425781 150.746094 C 212.328125 155.804688 213.628906 162.230469 217.972656 166.125 C 217.203125 166.351562 216.535156 166.203125 215.796875 166.488281 C 215.320312 166.648438 215.109375 166.910156 215.085938 167.402344 C 215.054688 168.023438 215.175781 168.214844 215.730469 168.46875 C 216.007812 168.597656 216.304688 168.652344 216.605469 168.6875 C 216.796875 168.710938 217.03125 168.605469 217.171875 168.730469 C 217.351562 168.914062 217.230469 169.253906 217.285156 169.5 C 217.34375 170.371094 217.34375 170.371094 216.519531 170.664062 C 214.527344 171.605469 212.160156 171.960938 210.449219 173.398438 C 210.058594 173.8125 210.023438 174.695312 210.445312 175.058594 C 212.734375 176.867188 216.195312 176.90625 218.992188 177.285156 C 219.679688 177.351562 219.574219 177.3125 219.558594 177.898438 C 219.476562 183.640625 217.359375 203.390625 212.042969 205.925781 C 211.75 206.046875 211.476562 206.210938 211.160156 206.289062 C 210.167969 206.464844 212.199219 208.324219 211.703125 210.933594 C 211.394531 218.453125 223.902344 216.210938 225.644531 226.589844 C 225.707031 226.972656 225.710938 226.984375 226.128906 226.988281 Z M 238.238281 215.78125 C 239.257812 215.316406 240.246094 214.820312 240.496094 213.5 C 241.777344 215.296875 243.234375 216.792969 245.359375 217.507812 C 246.566406 218 248.152344 218.535156 248.570312 219.910156 C 249.15625 222.890625 238.609375 223.566406 236.5 223.554688 C 234.507812 223.492188 232.371094 223.433594 230.585938 222.457031 C 228.375 221.175781 230.660156 218.925781 232.167969 218.226562 C 234.085938 217.167969 236.210938 216.597656 238.238281 215.78125 Z M 233.992188 206.367188 C 234.070312 206.5 234.164062 206.515625 234.148438 206.707031 C 230.800781 207.257812 227.449219 207.175781 224.058594 207.035156 C 226.386719 198.648438 225.332031 189.785156 226.105469 181.199219 C 228.796875 189.539062 228.410156 199.160156 233.992188 206.367188 Z M 238.511719 173.132812 C 238.433594 173.351562 238.242188 173.347656 238.09375 173.386719 C 234.542969 173.894531 230.925781 173.734375 227.347656 173.835938 C 227.164062 173.839844 227 173.8125 226.859375 173.675781 C 225.789062 172.632812 224.441406 172.238281 223.011719 172.027344 C 222.824219 172 222.628906 172.003906 222.398438 171.84375 C 224.625 171.671875 226.789062 171.578125 228.949219 171.433594 C 232.285156 171.175781 235.226562 172.8125 238.511719 173.132812 Z M 222.4375 137.058594 C 222.230469 133.96875 227.484375 133.445312 227.941406 136.875 C 228.175781 140.386719 222.367188 140.625 222.4375 137.058594 Z M 219.8125 156.683594 C 221.378906 154.023438 224.164062 152.425781 225.757812 149.808594 C 227.148438 147.285156 226.671875 144.347656 225.796875 141.742188 C 225.734375 141.527344 225.636719 141.316406 225.699219 141.050781 C 229.703125 144.726562 232.914062 150.46875 231.5 156.011719 C 230.863281 158.769531 226.585938 158.84375 226.390625 155.824219 C 226.367188 155.347656 226.386719 154.867188 226.386719 154.359375 C 223.699219 155.339844 221.210938 156.648438 218.820312 158.203125 C 219.152344 157.695312 219.484375 157.191406 219.8125 156.683594 Z M 219.363281 167.320312 C 219.101562 167.304688 218.84375 167.285156 218.484375 167.183594 C 221.792969 166.898438 232.113281 166.648438 234.132812 167.386719 C 229.195312 167.386719 224.292969 167.835938 219.363281 167.320312 Z M 225.375 209.882812 C 221.621094 209.695312 217.933594 209 214.304688 208.015625 C 219.460938 208.378906 224.453125 208.910156 229.589844 208.5625 C 232.242188 208.417969 234.882812 208.050781 237.546875 208.085938 C 237.550781 208.136719 237.554688 208.183594 237.5625 208.234375 C 233.664062 209.570312 229.480469 209.957031 225.375 209.882812 Z M 225.375 209.882812 " fill-opacity="1" fill-rule="nonzero"/></g><path fill="#1b75bb" d="M 220.929688 222.949219 C 219.042969 220.953125 216.410156 220.023438 214.046875 218.746094 C 211.070312 217.183594 208.339844 214.136719 208.957031 210.523438 C 209.484375 206.1875 206.085938 206.933594 204.496094 204.316406 C 197.761719 191.695312 196.710938 176.921875 196.214844 162.871094 C 196.058594 162.832031 195.898438 162.832031 195.742188 162.875 C 195.304688 162.992188 194.859375 162.964844 194.417969 162.949219 C 193.816406 162.925781 193.269531 162.730469 192.789062 162.359375 C 191.578125 161.5 194.097656 160.523438 194.753906 160.304688 C 197.410156 159.234375 204.683594 159.183594 206.128906 157.578125 C 206.140625 157.296875 205.792969 157.246094 205.613281 157.105469 C 203.078125 155.964844 200.316406 155.320312 197.625 154.730469 C 199.964844 155.621094 202.417969 156.074219 204.785156 156.898438 C 204.683594 157.023438 204.578125 157.058594 204.464844 157.078125 C 202.054688 157.511719 199.578125 157.285156 197.136719 157.449219 C 194.816406 157.535156 192.488281 157.597656 190.164062 157.589844 C 189.117188 157.667969 188.558594 156.652344 187.632812 156.367188 C 187.328125 160.652344 187.601562 165.089844 187.554688 169.425781 C 191.753906 181.613281 190.390625 196.304688 198.988281 206.785156 C 195.230469 207.699219 191.320312 207.542969 187.480469 207.582031 C 187.417969 208.210938 187.449219 208.839844 187.453125 209.472656 C 191.113281 209.570312 194.765625 209.199219 198.40625 208.886719 C 200.050781 208.726562 201.703125 208.679688 203.355469 208.601562 C 203.539062 208.59375 203.738281 208.578125 203.945312 208.6875 C 199.941406 211.292969 192.304688 211.476562 187.515625 211.710938 C 187.515625 219.617188 187.480469 227.523438 187.527344 235.433594 C 197.222656 235.488281 207.105469 235.132812 216.503906 232.546875 C 219.136719 231.652344 223.230469 230.628906 222.886719 227.105469 C 222.753906 225.476562 222.039062 224.121094 220.929688 222.949219 Z M 218.457031 226.972656 C 214.921875 230.625 198.296875 232.007812 194.066406 229.023438 C 190.40625 226.242188 195.804688 223.046875 198.324219 222.078125 C 200.9375 220.941406 203.808594 220.363281 206.253906 218.859375 C 206.6875 218.582031 206.976562 218.230469 206.945312 217.683594 C 206.941406 217.621094 206.980469 217.550781 207.03125 217.363281 C 209.246094 218.921875 210.984375 220.992188 213.546875 221.964844 C 215.441406 222.851562 218.089844 223.476562 218.753906 225.730469 C 218.859375 226.203125 218.757812 226.609375 218.457031 226.972656 Z M 218.457031 226.972656 " fill-opacity="1" fill-rule="nonzero"/><g clip-path="url(#7444d8b966)"><path fill="#1b75bb" d="M 222.640625 232.347656 C 222.621094 232.101562 222.699219 231.472656 222.285156 231.699219 C 220.734375 232.453125 219.148438 233.125 217.53125 233.722656 C 207.9375 237.226562 197.605469 238.003906 187.472656 238.3125 C 187.410156 241.753906 187.460938 245.195312 187.523438 248.632812 C 198.417969 248.421875 210.289062 247.878906 219.769531 241.953125 C 223.273438 239.707031 222.710938 235.980469 222.640625 232.347656 Z M 222.640625 232.347656 " fill-opacity="1" fill-rule="nonzero"/></g><g clip-path="url(#ab70566d63)"><path fill="#1b75bb" d="M 251.867188 224.445312 C 243.90625 228.25 234.859375 228.957031 226.152344 229.199219 C 225.746094 229.21875 225.746094 229.210938 225.730469 229.601562 C 225.726562 231.878906 225.75 234.15625 225.753906 236.433594 C 225.75 236.617188 225.84375 236.6875 226.019531 236.679688 C 228.21875 236.566406 230.421875 236.480469 232.621094 236.296875 C 238.65625 235.625 245.183594 235.0625 250.363281 231.613281 C 251.441406 230.785156 252.058594 229.703125 252.054688 228.324219 C 252.046875 227.238281 252.007812 226.15625 251.980469 225.070312 C 251.980469 224.878906 252 224.679688 251.867188 224.445312 Z M 251.867188 224.445312 " fill-opacity="1" fill-rule="nonzero"/></g><g clip-path="url(#55507e36d2)"><path fill="#1b75bb" d="M 187.515625 114.167969 C 187.511719 115.445312 187.492188 116.722656 187.476562 117.996094 C 189.585938 117.917969 191.71875 118.027344 193.8125 117.847656 C 194.34375 117.679688 193.90625 117.132812 193.722656 116.839844 C 192.503906 115.15625 191.402344 113.390625 190.140625 111.738281 C 190.082031 111.664062 189.972656 111.59375 190.046875 111.453125 C 192.117188 112.117188 194.1875 112.789062 196.28125 113.382812 C 196.789062 113.523438 196.914062 113.402344 196.953125 112.878906 C 196.941406 109.71875 196.96875 106.550781 196.898438 103.390625 C 196.832031 102.824219 196.191406 103.128906 195.835938 103.210938 C 193.855469 103.828125 191.957031 104.457031 190.011719 105.199219 C 191.253906 103.308594 192.542969 101.613281 193.675781 99.683594 C 193.875 99.359375 194.203125 98.761719 193.621094 98.648438 C 191.582031 98.601562 189.535156 98.699219 187.492188 98.703125 C 187.34375 103.855469 187.578125 109.015625 187.515625 114.167969 Z M 187.515625 114.167969 " fill-opacity="1" fill-rule="nonzero"/></g><path fill="#1b75bb" d="M 188.179688 123.023438 C 187.460938 122.988281 187.515625 122.972656 187.515625 123.671875 C 187.515625 131.441406 187.519531 139.214844 187.519531 146.988281 C 189.570312 147.050781 191.625 147.023438 193.675781 146.996094 C 194.207031 146.988281 194.679688 146.742188 195.039062 146.324219 C 194.867188 146.011719 195.128906 145.816406 195.269531 145.621094 C 196.136719 144.421875 196.703125 143.085938 197.113281 141.675781 C 198.65625 135.714844 200.648438 129.824219 202.835938 124.128906 C 197.957031 123.707031 193.074219 123.265625 188.179688 123.023438 Z M 188.179688 123.023438 " fill-opacity="1" fill-rule="nonzero"/><path fill="#1b75bb" d="M 195.789062 149.292969 C 196.375 148.742188 197.164062 148.460938 197.726562 147.90625 C 194.304688 147.839844 190.890625 148.328125 187.464844 148.25 C 187.566406 150.261719 187.480469 152.273438 187.535156 154.285156 C 190.714844 154.332031 193.921875 153.757812 197.039062 154.527344 C 197.097656 154.640625 197.203125 154.632812 197.308594 154.625 C 197.238281 154.539062 197.152344 154.496094 197.039062 154.523438 C 196.996094 154.386719 196.859375 154.367188 196.757812 154.308594 C 194.96875 153.433594 194.070312 150.695312 195.789062 149.292969 Z M 195.789062 149.292969 " fill-opacity="1" fill-rule="nonzero"/><g fill="#58595b" fill-opacity="1"><g transform="translate(130.046546, 281.174807)"><g><path d="M 21.0625 -22.9375 L 22.515625 -22.9375 L 21.921875 -15.390625 L 20.734375 -15.390625 C 20.316406 -17.222656 19.503906 -18.664062 18.296875 -19.71875 C 17.097656 -20.769531 15.644531 -21.296875 13.9375 -21.296875 C 12.769531 -21.296875 11.726562 -21.0625 10.8125 -20.59375 C 9.894531 -20.125 9.125 -19.457031 8.5 -18.59375 C 7.875 -17.726562 7.394531 -16.675781 7.0625 -15.4375 C 6.738281 -14.195312 6.578125 -12.800781 6.578125 -11.25 C 6.578125 -8.175781 7.207031 -5.8125 8.46875 -4.15625 C 9.726562 -2.5 11.59375 -1.671875 14.0625 -1.671875 C 16.039062 -1.671875 17.679688 -2.207031 18.984375 -3.28125 C 20.285156 -4.351562 21.210938 -5.953125 21.765625 -8.078125 L 23.078125 -8.078125 L 23.078125 0 L 21.6875 0 L 21.265625 -2.359375 C 19.078125 -0.585938 16.425781 0.296875 13.3125 0.296875 C 11.507812 0.296875 9.867188 0.03125 8.390625 -0.5 C 6.921875 -1.039062 5.671875 -1.800781 4.640625 -2.78125 C 3.609375 -3.769531 2.8125 -4.96875 2.25 -6.375 C 1.6875 -7.78125 1.40625 -9.347656 1.40625 -11.078125 C 1.40625 -12.878906 1.703125 -14.523438 2.296875 -16.015625 C 2.890625 -17.503906 3.726562 -18.785156 4.8125 -19.859375 C 5.894531 -20.929688 7.1875 -21.757812 8.6875 -22.34375 C 10.1875 -22.9375 11.847656 -23.234375 13.671875 -23.234375 C 14.878906 -23.234375 16.007812 -23.0625 17.0625 -22.71875 C 18.113281 -22.382812 19.253906 -21.835938 20.484375 -21.078125 Z M 21.0625 -22.9375 "/></g></g></g><g fill="#58595b" fill-opacity="1"><g transform="translate(154.55418, 281.174807)"><g><path d="M 23.96875 -4.796875 C 23.96875 -4.035156 24.003906 -3.421875 24.078125 -2.953125 C 24.148438 -2.492188 24.300781 -2.140625 24.53125 -1.890625 C 24.757812 -1.640625 25.078125 -1.460938 25.484375 -1.359375 C 25.890625 -1.265625 26.425781 -1.207031 27.09375 -1.1875 L 27.09375 0 L 16.171875 0 L 16.171875 -1.1875 C 16.898438 -1.207031 17.488281 -1.265625 17.9375 -1.359375 C 18.382812 -1.460938 18.734375 -1.632812 18.984375 -1.875 C 19.234375 -2.113281 19.394531 -2.453125 19.46875 -2.890625 C 19.550781 -3.328125 19.59375 -3.894531 19.59375 -4.59375 L 19.59375 -10.8125 L 8.546875 -10.8125 L 8.546875 -4.796875 C 8.546875 -4.035156 8.582031 -3.421875 8.65625 -2.953125 C 8.738281 -2.492188 8.898438 -2.140625 9.140625 -1.890625 C 9.378906 -1.640625 9.722656 -1.460938 10.171875 -1.359375 C 10.617188 -1.265625 11.207031 -1.207031 11.9375 -1.1875 L 11.9375 0 L 1.046875 0 L 1.046875 -1.1875 C 1.722656 -1.207031 2.265625 -1.265625 2.671875 -1.359375 C 3.078125 -1.460938 3.390625 -1.632812 3.609375 -1.875 C 3.828125 -2.113281 3.972656 -2.453125 4.046875 -2.890625 C 4.128906 -3.328125 4.171875 -3.894531 4.171875 -4.59375 L 4.171875 -18.34375 C 4.171875 -19.039062 4.132812 -19.601562 4.0625 -20.03125 C 3.988281 -20.457031 3.851562 -20.789062 3.65625 -21.03125 C 3.457031 -21.28125 3.175781 -21.453125 2.8125 -21.546875 C 2.445312 -21.640625 1.96875 -21.703125 1.375 -21.734375 L 1.375 -22.9375 L 11.640625 -22.9375 L 11.640625 -21.734375 C 10.960938 -21.710938 10.421875 -21.648438 10.015625 -21.546875 C 9.609375 -21.453125 9.296875 -21.273438 9.078125 -21.015625 C 8.859375 -20.765625 8.710938 -20.410156 8.640625 -19.953125 C 8.578125 -19.492188 8.546875 -18.890625 8.546875 -18.140625 L 8.546875 -12.65625 L 19.59375 -12.65625 L 19.59375 -18.34375 C 19.59375 -19.039062 19.550781 -19.601562 19.46875 -20.03125 C 19.394531 -20.457031 19.25 -20.789062 19.03125 -21.03125 C 18.8125 -21.28125 18.5 -21.453125 18.09375 -21.546875 C 17.6875 -21.640625 17.144531 -21.703125 16.46875 -21.734375 L 16.46875 -22.9375 L 26.765625 -22.9375 L 26.765625 -21.734375 C 26.171875 -21.710938 25.691406 -21.648438 25.328125 -21.546875 C 24.960938 -21.453125 24.679688 -21.273438 24.484375 -21.015625 C 24.285156 -20.765625 24.148438 -20.410156 24.078125 -19.953125 C 24.003906 -19.492188 23.96875 -18.890625 23.96875 -18.140625 Z M 23.96875 -4.796875 "/></g></g></g><g fill="#58595b" fill-opacity="1"><g transform="translate(182.694785, 281.174807)"><g><path d="M 8.546875 -12.6875 C 9.816406 -12.6875 10.835938 -12.722656 11.609375 -12.796875 C 12.390625 -12.878906 12.992188 -13.046875 13.421875 -13.296875 C 13.847656 -13.546875 14.148438 -13.90625 14.328125 -14.375 C 14.503906 -14.851562 14.640625 -15.5 14.734375 -16.3125 L 15.84375 -16.3125 L 15.84375 -7.59375 L 14.734375 -7.59375 C 14.617188 -8.382812 14.460938 -9.019531 14.265625 -9.5 C 14.066406 -9.976562 13.75 -10.335938 13.3125 -10.578125 C 12.875 -10.828125 12.28125 -10.988281 11.53125 -11.0625 C 10.789062 -11.132812 9.796875 -11.171875 8.546875 -11.171875 L 8.546875 -5.03125 C 8.546875 -4.394531 8.628906 -3.859375 8.796875 -3.421875 C 8.960938 -2.984375 9.242188 -2.628906 9.640625 -2.359375 C 10.046875 -2.097656 10.570312 -1.910156 11.21875 -1.796875 C 11.875 -1.691406 12.679688 -1.640625 13.640625 -1.640625 C 14.773438 -1.640625 15.734375 -1.71875 16.515625 -1.875 C 17.296875 -2.03125 17.941406 -2.304688 18.453125 -2.703125 C 18.972656 -3.109375 19.390625 -3.640625 19.703125 -4.296875 C 20.023438 -4.960938 20.296875 -5.800781 20.515625 -6.8125 L 21.703125 -6.8125 L 21.234375 0 L 1.046875 0 L 1.046875 -1.1875 C 1.703125 -1.207031 2.238281 -1.265625 2.65625 -1.359375 C 3.070312 -1.460938 3.390625 -1.632812 3.609375 -1.875 C 3.828125 -2.113281 3.972656 -2.453125 4.046875 -2.890625 C 4.128906 -3.328125 4.171875 -3.894531 4.171875 -4.59375 L 4.171875 -18.34375 C 4.171875 -19.039062 4.132812 -19.601562 4.0625 -20.03125 C 3.988281 -20.457031 3.851562 -20.789062 3.65625 -21.03125 C 3.457031 -21.28125 3.175781 -21.453125 2.8125 -21.546875 C 2.445312 -21.640625 1.96875 -21.703125 1.375 -21.734375 L 1.375 -22.9375 L 20.1875 -22.9375 L 20.40625 -17.09375 L 19.125 -17.09375 C 19 -17.925781 18.804688 -18.613281 18.546875 -19.15625 C 18.296875 -19.707031 17.941406 -20.144531 17.484375 -20.46875 C 17.023438 -20.800781 16.429688 -21.03125 15.703125 -21.15625 C 14.984375 -21.289062 14.097656 -21.359375 13.046875 -21.359375 L 9.671875 -21.359375 C 9.160156 -21.359375 8.84375 -21.289062 8.71875 -21.15625 C 8.601562 -21.03125 8.546875 -20.726562 8.546875 -20.25 Z M 8.546875 -12.6875 "/></g></g></g><g fill="#58595b" fill-opacity="1"><g transform="translate(205.445491, 281.174807)"><g><path d="M 1.609375 -7.59375 L 2.765625 -7.59375 C 3.046875 -5.707031 3.800781 -4.222656 5.03125 -3.140625 C 6.257812 -2.054688 7.78125 -1.515625 9.59375 -1.515625 C 10.320312 -1.515625 10.992188 -1.601562 11.609375 -1.78125 C 12.222656 -1.96875 12.75 -2.222656 13.1875 -2.546875 C 13.625 -2.867188 13.960938 -3.253906 14.203125 -3.703125 C 14.441406 -4.148438 14.5625 -4.65625 14.5625 -5.21875 C 14.5625 -5.6875 14.484375 -6.09375 14.328125 -6.4375 C 14.179688 -6.789062 13.898438 -7.128906 13.484375 -7.453125 C 13.066406 -7.785156 12.492188 -8.117188 11.765625 -8.453125 C 11.046875 -8.796875 10.113281 -9.1875 8.96875 -9.625 C 6.644531 -10.507812 4.925781 -11.539062 3.8125 -12.71875 C 2.695312 -13.90625 2.140625 -15.304688 2.140625 -16.921875 C 2.140625 -17.847656 2.316406 -18.695312 2.671875 -19.46875 C 3.035156 -20.25 3.539062 -20.914062 4.1875 -21.46875 C 4.832031 -22.03125 5.601562 -22.460938 6.5 -22.765625 C 7.40625 -23.078125 8.40625 -23.234375 9.5 -23.234375 C 10.507812 -23.234375 11.460938 -23.070312 12.359375 -22.75 C 13.253906 -22.4375 14.140625 -21.960938 15.015625 -21.328125 L 15.546875 -22.8125 L 16.265625 -22.8125 L 16.59375 -16.375 L 15.421875 -16.375 C 14.953125 -18.007812 14.207031 -19.253906 13.1875 -20.109375 C 12.175781 -20.972656 11.003906 -21.40625 9.671875 -21.40625 C 8.441406 -21.40625 7.445312 -21.101562 6.6875 -20.5 C 5.925781 -19.894531 5.546875 -19.117188 5.546875 -18.171875 C 5.546875 -17.753906 5.613281 -17.378906 5.75 -17.046875 C 5.882812 -16.722656 6.140625 -16.410156 6.515625 -16.109375 C 6.898438 -15.816406 7.414062 -15.515625 8.0625 -15.203125 C 8.71875 -14.890625 9.566406 -14.546875 10.609375 -14.171875 C 11.992188 -13.640625 13.175781 -13.097656 14.15625 -12.546875 C 15.144531 -12.003906 15.953125 -11.421875 16.578125 -10.796875 C 17.203125 -10.171875 17.660156 -9.507812 17.953125 -8.8125 C 18.253906 -8.113281 18.40625 -7.347656 18.40625 -6.515625 C 18.40625 -5.503906 18.1875 -4.582031 17.75 -3.75 C 17.3125 -2.914062 16.695312 -2.203125 15.90625 -1.609375 C 15.125 -1.015625 14.191406 -0.546875 13.109375 -0.203125 C 12.035156 0.128906 10.84375 0.296875 9.53125 0.296875 C 8.34375 0.296875 7.269531 0.132812 6.3125 -0.1875 C 5.363281 -0.519531 4.378906 -1.050781 3.359375 -1.78125 L 2.765625 0 L 2.0625 0 Z M 1.609375 -7.59375 "/></g></g></g><g fill="#58595b" fill-opacity="1"><g transform="translate(225.188578, 281.174807)"><g><path d="M 1.609375 -7.59375 L 2.765625 -7.59375 C 3.046875 -5.707031 3.800781 -4.222656 5.03125 -3.140625 C 6.257812 -2.054688 7.78125 -1.515625 9.59375 -1.515625 C 10.320312 -1.515625 10.992188 -1.601562 11.609375 -1.78125 C 12.222656 -1.96875 12.75 -2.222656 13.1875 -2.546875 C 13.625 -2.867188 13.960938 -3.253906 14.203125 -3.703125 C 14.441406 -4.148438 14.5625 -4.65625 14.5625 -5.21875 C 14.5625 -5.6875 14.484375 -6.09375 14.328125 -6.4375 C 14.179688 -6.789062 13.898438 -7.128906 13.484375 -7.453125 C 13.066406 -7.785156 12.492188 -8.117188 11.765625 -8.453125 C 11.046875 -8.796875 10.113281 -9.1875 8.96875 -9.625 C 6.644531 -10.507812 4.925781 -11.539062 3.8125 -12.71875 C 2.695312 -13.90625 2.140625 -15.304688 2.140625 -16.921875 C 2.140625 -17.847656 2.316406 -18.695312 2.671875 -19.46875 C 3.035156 -20.25 3.539062 -20.914062 4.1875 -21.46875 C 4.832031 -22.03125 5.601562 -22.460938 6.5 -22.765625 C 7.40625 -23.078125 8.40625 -23.234375 9.5 -23.234375 C 10.507812 -23.234375 11.460938 -23.070312 12.359375 -22.75 C 13.253906 -22.4375 14.140625 -21.960938 15.015625 -21.328125 L 15.546875 -22.8125 L 16.265625 -22.8125 L 16.59375 -16.375 L 15.421875 -16.375 C 14.953125 -18.007812 14.207031 -19.253906 13.1875 -20.109375 C 12.175781 -20.972656 11.003906 -21.40625 9.671875 -21.40625 C 8.441406 -21.40625 7.445312 -21.101562 6.6875 -20.5 C 5.925781 -19.894531 5.546875 -19.117188 5.546875 -18.171875 C 5.546875 -17.753906 5.613281 -17.378906 5.75 -17.046875 C 5.882812 -16.722656 6.140625 -16.410156 6.515625 -16.109375 C 6.898438 -15.816406 7.414062 -15.515625 8.0625 -15.203125 C 8.71875 -14.890625 9.566406 -14.546875 10.609375 -14.171875 C 11.992188 -13.640625 13.175781 -13.097656 14.15625 -12.546875 C 15.144531 -12.003906 15.953125 -11.421875 16.578125 -10.796875 C 17.203125 -10.171875 17.660156 -9.507812 17.953125 -8.8125 C 18.253906 -8.113281 18.40625 -7.347656 18.40625 -6.515625 C 18.40625 -5.503906 18.1875 -4.582031 17.75 -3.75 C 17.3125 -2.914062 16.695312 -2.203125 15.90625 -1.609375 C 15.125 -1.015625 14.191406 -0.546875 13.109375 -0.203125 C 12.035156 0.128906 10.84375 0.296875 9.53125 0.296875 C 8.34375 0.296875 7.269531 0.132812 6.3125 -0.1875 C 5.363281 -0.519531 4.378906 -1.050781 3.359375 -1.78125 L 2.765625 0 L 2.0625 0 Z M 1.609375 -7.59375 "/></g></g></g><g fill="#58595b" fill-opacity="1"><g transform="translate(103.252455, 191.999987)"><g><path d="M 6.828125 -1.21875 C 6.085938 -0.320312 5.171875 0.125 4.078125 0.125 C 3.554688 0.125 3.085938 0.0390625 2.671875 -0.125 C 2.253906 -0.289062 1.894531 -0.53125 1.59375 -0.84375 C 1.289062 -1.15625 1.054688 -1.523438 0.890625 -1.953125 C 0.722656 -2.390625 0.640625 -2.867188 0.640625 -3.390625 C 0.640625 -3.921875 0.726562 -4.410156 0.90625 -4.859375 C 1.082031 -5.316406 1.328125 -5.707031 1.640625 -6.03125 C 1.960938 -6.351562 2.34375 -6.609375 2.78125 -6.796875 C 3.21875 -6.984375 3.703125 -7.078125 4.234375 -7.078125 C 5.078125 -7.078125 5.726562 -6.847656 6.1875 -6.390625 C 6.65625 -5.929688 6.890625 -5.269531 6.890625 -4.40625 C 6.890625 -4.289062 6.863281 -4.21875 6.8125 -4.1875 C 6.769531 -4.164062 6.660156 -4.15625 6.484375 -4.15625 L 2.171875 -4.15625 C 2.148438 -4.082031 2.132812 -3.992188 2.125 -3.890625 C 2.125 -3.796875 2.125 -3.6875 2.125 -3.5625 C 2.125 -3.101562 2.175781 -2.6875 2.28125 -2.3125 C 2.394531 -1.945312 2.550781 -1.632812 2.75 -1.375 C 2.957031 -1.113281 3.203125 -0.910156 3.484375 -0.765625 C 3.773438 -0.617188 4.09375 -0.546875 4.4375 -0.546875 C 4.800781 -0.546875 5.140625 -0.625 5.453125 -0.78125 C 5.773438 -0.945312 6.097656 -1.210938 6.421875 -1.578125 Z M 4.671875 -4.75 C 4.847656 -4.75 4.988281 -4.753906 5.09375 -4.765625 C 5.195312 -4.773438 5.273438 -4.789062 5.328125 -4.8125 C 5.378906 -4.84375 5.410156 -4.878906 5.421875 -4.921875 C 5.441406 -4.972656 5.453125 -5.039062 5.453125 -5.125 C 5.453125 -5.519531 5.320312 -5.835938 5.0625 -6.078125 C 4.8125 -6.316406 4.460938 -6.4375 4.015625 -6.4375 C 3.078125 -6.4375 2.492188 -5.875 2.265625 -4.75 Z M 4.671875 -4.75 "/></g></g></g><g fill="#58595b" fill-opacity="1"><g transform="translate(110.746206, 191.999987)"><g><path d="M 1.125 0 L 0.84375 0 L 0.84375 -2.25 L 1.171875 -2.25 C 1.503906 -1.019531 2.125 -0.40625 3.03125 -0.40625 C 3.375 -0.40625 3.644531 -0.488281 3.84375 -0.65625 C 4.050781 -0.832031 4.15625 -1.09375 4.15625 -1.4375 C 4.15625 -1.570312 4.132812 -1.679688 4.09375 -1.765625 C 4.0625 -1.859375 3.988281 -1.957031 3.875 -2.0625 C 3.769531 -2.164062 3.617188 -2.28125 3.421875 -2.40625 C 3.222656 -2.539062 2.960938 -2.707031 2.640625 -2.90625 C 2.347656 -3.09375 2.09375 -3.265625 1.875 -3.421875 C 1.65625 -3.578125 1.46875 -3.734375 1.3125 -3.890625 C 1.164062 -4.054688 1.054688 -4.226562 0.984375 -4.40625 C 0.910156 -4.59375 0.875 -4.804688 0.875 -5.046875 C 0.875 -5.347656 0.921875 -5.625 1.015625 -5.875 C 1.117188 -6.125 1.257812 -6.332031 1.4375 -6.5 C 1.613281 -6.675781 1.816406 -6.816406 2.046875 -6.921875 C 2.285156 -7.023438 2.546875 -7.078125 2.828125 -7.078125 C 3.066406 -7.078125 3.3125 -7.035156 3.5625 -6.953125 C 3.8125 -6.878906 4.035156 -6.785156 4.234375 -6.671875 L 4.484375 -6.9375 L 4.734375 -6.9375 L 4.734375 -5.046875 L 4.40625 -5.046875 C 4.207031 -5.585938 3.992188 -5.96875 3.765625 -6.1875 C 3.546875 -6.414062 3.269531 -6.53125 2.9375 -6.53125 C 2.632812 -6.53125 2.394531 -6.453125 2.21875 -6.296875 C 2.039062 -6.140625 1.953125 -5.921875 1.953125 -5.640625 C 1.953125 -5.492188 1.972656 -5.363281 2.015625 -5.25 C 2.066406 -5.144531 2.144531 -5.039062 2.25 -4.9375 C 2.351562 -4.832031 2.484375 -4.722656 2.640625 -4.609375 C 2.804688 -4.503906 3.003906 -4.382812 3.234375 -4.25 C 3.609375 -4.007812 3.925781 -3.796875 4.1875 -3.609375 C 4.457031 -3.429688 4.675781 -3.25 4.84375 -3.0625 C 5.007812 -2.882812 5.128906 -2.695312 5.203125 -2.5 C 5.285156 -2.3125 5.328125 -2.097656 5.328125 -1.859375 C 5.328125 -1.234375 5.125 -0.742188 4.71875 -0.390625 C 4.320312 -0.046875 3.796875 0.125 3.140625 0.125 C 2.460938 0.125 1.878906 -0.0664062 1.390625 -0.453125 Z M 1.125 0 "/></g></g></g><g fill="#58595b" fill-opacity="1"><g transform="translate(116.683663, 191.999987)"><g><path d="M 0.53125 -6.109375 L 0.53125 -6.59375 C 0.988281 -6.863281 1.347656 -7.132812 1.609375 -7.40625 C 1.867188 -7.675781 2.070312 -8 2.21875 -8.375 L 2.59375 -8.375 L 2.59375 -6.734375 L 4.34375 -6.734375 L 4.34375 -6.109375 L 2.59375 -6.109375 L 2.59375 -2.140625 C 2.59375 -1.828125 2.609375 -1.566406 2.640625 -1.359375 C 2.671875 -1.148438 2.71875 -0.984375 2.78125 -0.859375 C 2.851562 -0.734375 2.945312 -0.644531 3.0625 -0.59375 C 3.175781 -0.539062 3.320312 -0.515625 3.5 -0.515625 C 3.71875 -0.515625 3.898438 -0.554688 4.046875 -0.640625 C 4.203125 -0.734375 4.351562 -0.890625 4.5 -1.109375 L 4.828125 -0.859375 C 4.703125 -0.535156 4.488281 -0.289062 4.1875 -0.125 C 3.894531 0.0390625 3.523438 0.125 3.078125 0.125 C 2.503906 0.125 2.066406 -0.0078125 1.765625 -0.28125 C 1.460938 -0.550781 1.3125 -0.945312 1.3125 -1.46875 L 1.3125 -6.109375 Z M 0.53125 -6.109375 "/></g></g></g><g fill="#58595b" fill-opacity="1"><g transform="translate(121.627179, 191.999987)"><g><path d="M 0.875 -0.71875 C 0.875 -0.96875 0.957031 -1.171875 1.125 -1.328125 C 1.289062 -1.492188 1.492188 -1.578125 1.734375 -1.578125 C 1.972656 -1.578125 2.175781 -1.492188 2.34375 -1.328125 C 2.507812 -1.171875 2.59375 -0.96875 2.59375 -0.71875 C 2.59375 -0.476562 2.507812 -0.273438 2.34375 -0.109375 C 2.175781 0.046875 1.972656 0.125 1.734375 0.125 C 1.492188 0.125 1.289062 0.046875 1.125 -0.109375 C 0.957031 -0.273438 0.875 -0.476562 0.875 -0.71875 Z M 0.875 -0.71875 "/></g></g></g><g fill="#58595b" fill-opacity="1"><g transform="translate(241.422058, 191.999987)"><g><path d="M 2.5625 -1.28125 L 5.171875 -1.28125 C 5.378906 -1.28125 5.5625 -1.300781 5.71875 -1.34375 C 5.875 -1.382812 6.015625 -1.457031 6.140625 -1.5625 C 6.265625 -1.675781 6.375 -1.832031 6.46875 -2.03125 C 6.5625 -2.226562 6.65625 -2.476562 6.75 -2.78125 L 7.234375 -2.78125 L 6.75 0 L 0.65625 0 L 0.65625 -0.4375 C 1.644531 -1.320312 2.460938 -2.097656 3.109375 -2.765625 C 3.753906 -3.429688 4.257812 -4.03125 4.625 -4.5625 C 4.988281 -5.101562 5.238281 -5.597656 5.375 -6.046875 C 5.519531 -6.492188 5.59375 -6.945312 5.59375 -7.40625 C 5.59375 -8.09375 5.429688 -8.628906 5.109375 -9.015625 C 4.796875 -9.410156 4.363281 -9.609375 3.8125 -9.609375 C 3.289062 -9.609375 2.863281 -9.4375 2.53125 -9.09375 C 2.207031 -8.757812 2.046875 -8.320312 2.046875 -7.78125 C 2.046875 -7.3125 2.171875 -6.9375 2.421875 -6.65625 C 2.679688 -6.375 3.035156 -6.234375 3.484375 -6.234375 C 3.441406 -6.023438 3.328125 -5.851562 3.140625 -5.71875 C 2.960938 -5.59375 2.738281 -5.53125 2.46875 -5.53125 C 2.21875 -5.53125 1.988281 -5.578125 1.78125 -5.671875 C 1.582031 -5.773438 1.40625 -5.910156 1.25 -6.078125 C 1.09375 -6.253906 0.972656 -6.460938 0.890625 -6.703125 C 0.804688 -6.953125 0.765625 -7.21875 0.765625 -7.5 C 0.765625 -7.894531 0.847656 -8.257812 1.015625 -8.59375 C 1.179688 -8.925781 1.410156 -9.210938 1.703125 -9.453125 C 1.992188 -9.691406 2.335938 -9.878906 2.734375 -10.015625 C 3.128906 -10.148438 3.554688 -10.21875 4.015625 -10.21875 C 4.484375 -10.21875 4.90625 -10.148438 5.28125 -10.015625 C 5.664062 -9.878906 6 -9.679688 6.28125 -9.421875 C 6.5625 -9.171875 6.773438 -8.875 6.921875 -8.53125 C 7.078125 -8.1875 7.15625 -7.804688 7.15625 -7.390625 C 7.15625 -6.847656 7.035156 -6.316406 6.796875 -5.796875 C 6.554688 -5.273438 6.226562 -4.765625 5.8125 -4.265625 C 5.394531 -3.765625 4.90625 -3.269531 4.34375 -2.78125 C 3.789062 -2.300781 3.191406 -1.820312 2.546875 -1.34375 Z M 2.5625 -1.28125 "/></g></g></g><g fill="#58595b" fill-opacity="1"><g transform="translate(249.47816, 191.999987)"><g><path d="M 4.671875 -10.21875 C 5.203125 -10.21875 5.703125 -10.082031 6.171875 -9.8125 C 6.648438 -9.539062 7.0625 -9.164062 7.40625 -8.6875 C 7.757812 -8.21875 8.035156 -7.664062 8.234375 -7.03125 C 8.441406 -6.394531 8.546875 -5.707031 8.546875 -4.96875 C 8.546875 -4.257812 8.441406 -3.59375 8.234375 -2.96875 C 8.035156 -2.351562 7.757812 -1.816406 7.40625 -1.359375 C 7.0625 -0.898438 6.648438 -0.535156 6.171875 -0.265625 C 5.703125 -0.00390625 5.203125 0.125 4.671875 0.125 C 4.140625 0.125 3.640625 -0.00390625 3.171875 -0.265625 C 2.703125 -0.535156 2.289062 -0.898438 1.9375 -1.359375 C 1.59375 -1.816406 1.316406 -2.351562 1.109375 -2.96875 C 0.898438 -3.59375 0.796875 -4.257812 0.796875 -4.96875 C 0.796875 -5.707031 0.898438 -6.394531 1.109375 -7.03125 C 1.316406 -7.664062 1.59375 -8.21875 1.9375 -8.6875 C 2.289062 -9.164062 2.703125 -9.539062 3.171875 -9.8125 C 3.640625 -10.082031 4.140625 -10.21875 4.671875 -10.21875 Z M 4.671875 -0.5 C 5.015625 -0.5 5.316406 -0.566406 5.578125 -0.703125 C 5.847656 -0.847656 6.078125 -1.085938 6.265625 -1.421875 C 6.453125 -1.765625 6.59375 -2.21875 6.6875 -2.78125 C 6.789062 -3.351562 6.84375 -4.066406 6.84375 -4.921875 C 6.84375 -5.816406 6.789062 -6.5625 6.6875 -7.15625 C 6.59375 -7.75 6.453125 -8.222656 6.265625 -8.578125 C 6.085938 -8.941406 5.863281 -9.195312 5.59375 -9.34375 C 5.320312 -9.5 5.015625 -9.578125 4.671875 -9.578125 C 4.328125 -9.578125 4.019531 -9.5 3.75 -9.34375 C 3.488281 -9.195312 3.265625 -8.941406 3.078125 -8.578125 C 2.890625 -8.222656 2.742188 -7.75 2.640625 -7.15625 C 2.546875 -6.5625 2.5 -5.816406 2.5 -4.921875 C 2.5 -4.066406 2.546875 -3.351562 2.640625 -2.78125 C 2.742188 -2.21875 2.890625 -1.765625 3.078125 -1.421875 C 3.265625 -1.085938 3.488281 -0.847656 3.75 -0.703125 C 4.019531 -0.566406 4.328125 -0.5 4.671875 -0.5 Z M 4.671875 -0.5 "/></g></g></g><g fill="#58595b" fill-opacity="1"><g transform="translate(258.815921, 191.999987)"><g><path d="M 2.5625 -1.28125 L 5.171875 -1.28125 C 5.378906 -1.28125 5.5625 -1.300781 5.71875 -1.34375 C 5.875 -1.382812 6.015625 -1.457031 6.140625 -1.5625 C 6.265625 -1.675781 6.375 -1.832031 6.46875 -2.03125 C 6.5625 -2.226562 6.65625 -2.476562 6.75 -2.78125 L 7.234375 -2.78125 L 6.75 0 L 0.65625 0 L 0.65625 -0.4375 C 1.644531 -1.320312 2.460938 -2.097656 3.109375 -2.765625 C 3.753906 -3.429688 4.257812 -4.03125 4.625 -4.5625 C 4.988281 -5.101562 5.238281 -5.597656 5.375 -6.046875 C 5.519531 -6.492188 5.59375 -6.945312 5.59375 -7.40625 C 5.59375 -8.09375 5.429688 -8.628906 5.109375 -9.015625 C 4.796875 -9.410156 4.363281 -9.609375 3.8125 -9.609375 C 3.289062 -9.609375 2.863281 -9.4375 2.53125 -9.09375 C 2.207031 -8.757812 2.046875 -8.320312 2.046875 -7.78125 C 2.046875 -7.3125 2.171875 -6.9375 2.421875 -6.65625 C 2.679688 -6.375 3.035156 -6.234375 3.484375 -6.234375 C 3.441406 -6.023438 3.328125 -5.851562 3.140625 -5.71875 C 2.960938 -5.59375 2.738281 -5.53125 2.46875 -5.53125 C 2.21875 -5.53125 1.988281 -5.578125 1.78125 -5.671875 C 1.582031 -5.773438 1.40625 -5.910156 1.25 -6.078125 C 1.09375 -6.253906 0.972656 -6.460938 0.890625 -6.703125 C 0.804688 -6.953125 0.765625 -7.21875 0.765625 -7.5 C 0.765625 -7.894531 0.847656 -8.257812 1.015625 -8.59375 C 1.179688 -8.925781 1.410156 -9.210938 1.703125 -9.453125 C 1.992188 -9.691406 2.335938 -9.878906 2.734375 -10.015625 C 3.128906 -10.148438 3.554688 -10.21875 4.015625 -10.21875 C 4.484375 -10.21875 4.90625 -10.148438 5.28125 -10.015625 C 5.664062 -9.878906 6 -9.679688 6.28125 -9.421875 C 6.5625 -9.171875 6.773438 -8.875 6.921875 -8.53125 C 7.078125 -8.1875 7.15625 -7.804688 7.15625 -7.390625 C 7.15625 -6.847656 7.035156 -6.316406 6.796875 -5.796875 C 6.554688 -5.273438 6.226562 -4.765625 5.8125 -4.265625 C 5.394531 -3.765625 4.90625 -3.269531 4.34375 -2.78125 C 3.789062 -2.300781 3.191406 -1.820312 2.546875 -1.34375 Z M 2.5625 -1.28125 "/></g></g></g><g fill="#58595b" fill-opacity="1"><g transform="translate(266.872023, 191.999987)"><g><path d="M 0.234375 -3 L 4.84375 -10.21875 L 5.25 -10.21875 L 5.25 -2.96875 C 5.519531 -2.976562 5.734375 -3 5.890625 -3.03125 C 6.054688 -3.0625 6.179688 -3.117188 6.265625 -3.203125 C 6.347656 -3.285156 6.398438 -3.398438 6.421875 -3.546875 C 6.453125 -3.703125 6.46875 -3.90625 6.46875 -4.15625 L 6.921875 -4.15625 L 6.921875 -1.25 L 6.46875 -1.25 C 6.46875 -1.476562 6.453125 -1.664062 6.421875 -1.8125 C 6.398438 -1.96875 6.347656 -2.085938 6.265625 -2.171875 C 6.179688 -2.253906 6.054688 -2.3125 5.890625 -2.34375 C 5.734375 -2.375 5.519531 -2.390625 5.25 -2.390625 L 5.25 -2.125 C 5.25 -1.78125 5.257812 -1.503906 5.28125 -1.296875 C 5.3125 -1.085938 5.363281 -0.921875 5.4375 -0.796875 C 5.507812 -0.679688 5.613281 -0.601562 5.75 -0.5625 C 5.882812 -0.519531 6.0625 -0.5 6.28125 -0.5 L 6.28125 0 L 2.609375 0 L 2.609375 -0.5 C 2.890625 -0.5 3.117188 -0.519531 3.296875 -0.5625 C 3.484375 -0.601562 3.625 -0.679688 3.71875 -0.796875 C 3.8125 -0.910156 3.875 -1.066406 3.90625 -1.265625 C 3.945312 -1.472656 3.96875 -1.726562 3.96875 -2.03125 L 3.96875 -2.34375 L 0.234375 -2.34375 Z M 3.96875 -7.65625 L 3.90625 -7.65625 L 0.890625 -3 L 3.96875 -3 Z M 3.96875 -7.65625 "/></g></g></g></svg>